<svg data-v-423bf9ae="" xmlns="http://www.w3.org/2000/svg" viewBox="0 0 391.3562542844209 163" class="iconAbove"><!----><!----><!----><g data-v-423bf9ae="" id="ddb21b0b-475b-400d-a954-9b70f648876b" fill="#ffffff" transform="matrix(5.424955053999871,0,0,5.424955053999871,-4.394214830972913,91.1735983353812)"><path d="M7.13 11.89L7.13 8.27L8.48 8.27L8.48 12.81L8.48 12.81Q8.32 12.87 8.00 12.94L8.00 12.94L8.00 12.94Q7.69 13.01 7.27 13.08L7.27 13.08L7.27 13.08Q6.86 13.15 6.37 13.20L6.37 13.20L6.37 13.20Q5.88 13.24 5.38 13.24L5.38 13.24L5.38 13.24Q4.35 13.24 3.51 12.91L3.51 12.91L3.51 12.91Q2.67 12.57 2.07 11.93L2.07 11.93L2.07 11.93Q1.47 11.28 1.14 10.35L1.14 10.35L1.14 10.35Q0.81 9.41 0.81 8.19L0.81 8.19L0.81 8.19Q0.81 6.97 1.18 6.03L1.18 6.03L1.18 6.03Q1.55 5.08 2.18 4.44L2.18 4.44L2.18 4.44Q2.81 3.79 3.66 3.46L3.66 3.46L3.66 3.46Q4.51 3.12 5.47 3.12L5.47 3.12L5.47 3.12Q6.13 3.12 6.64 3.21L6.64 3.21L6.64 3.21Q7.15 3.29 7.52 3.40L7.52 3.40L7.52 3.40Q7.88 3.51 8.11 3.63L8.11 3.63L8.11 3.63Q8.34 3.74 8.43 3.79L8.43 3.79L7.99 4.93L7.99 4.93Q7.59 4.66 6.92 4.49L6.92 4.49L6.92 4.49Q6.24 4.31 5.54 4.31L5.54 4.31L5.54 4.31Q4.80 4.31 4.19 4.58L4.19 4.58L4.19 4.58Q3.58 4.84 3.16 5.35L3.16 5.35L3.16 5.35Q2.73 5.85 2.49 6.57L2.49 6.57L2.49 6.57Q2.25 7.29 2.25 8.19L2.25 8.19L2.25 8.19Q2.25 9.06 2.46 9.77L2.46 9.77L2.46 9.77Q2.66 10.49 3.07 11.00L3.07 11.00L3.07 11.00Q3.49 11.51 4.09 11.79L4.09 11.79L4.09 11.79Q4.70 12.07 5.53 12.07L5.53 12.07L5.53 12.07Q6.12 12.07 6.53 12.01L6.53 12.01L6.53 12.01Q6.94 11.94 7.13 11.89L7.13 11.89ZM13.22 5.61L13.22 5.61L13.22 5.61Q13.38 5.61 13.60 5.63L13.60 5.63L13.60 5.63Q13.82 5.66 14.03 5.69L14.03 5.69L14.03 5.69Q14.24 5.73 14.41 5.76L14.41 5.76L14.41 5.76Q14.59 5.80 14.67 5.82L14.67 5.82L14.45 6.96L14.45 6.96Q14.29 6.90 13.94 6.83L13.94 6.83L13.94 6.83Q13.58 6.75 13.02 6.75L13.02 6.75L13.02 6.75Q12.66 6.75 12.30 6.83L12.30 6.83L12.30 6.83Q11.94 6.90 11.83 6.93L11.83 6.93L11.83 13.05L10.53 13.05L10.53 6.08L10.53 6.08Q10.99 5.91 11.68 5.76L11.68 5.76L11.68 5.76Q12.36 5.61 13.22 5.61ZM18.40 12.11L18.40 12.11L18.40 12.11Q18.86 12.11 19.21 12.09L19.21 12.09L19.21 12.09Q19.57 12.07 19.81 12.01L19.81 12.01L19.81 9.84L19.81 9.84Q19.67 9.77 19.36 9.72L19.36 9.72L19.36 9.72Q19.04 9.67 18.59 9.67L18.59 9.67L18.59 9.67Q18.30 9.67 17.97 9.72L17.97 9.72L17.97 9.72Q17.64 9.76 17.37 9.89L17.37 9.89L17.37 9.89Q17.09 10.02 16.91 10.25L16.91 10.25L16.91 10.25Q16.73 10.49 16.73 10.86L16.73 10.86L16.73 10.86Q16.73 11.56 17.18 11.84L17.18 11.84L17.18 11.84Q17.63 12.11 18.40 12.11ZM18.28 5.59L18.28 5.59L18.28 5.59Q19.07 5.59 19.61 5.79L19.61 5.79L19.61 5.79Q20.15 5.99 20.48 6.36L20.48 6.36L20.48 6.36Q20.80 6.73 20.94 7.25L20.94 7.25L20.94 7.25Q21.08 7.76 21.08 8.37L21.08 8.37L21.08 12.92L21.08 12.92Q20.92 12.95 20.61 13.00L20.61 13.00L20.61 13.00Q20.31 13.05 19.94 13.09L19.94 13.09L19.94 13.09Q19.56 13.13 19.12 13.17L19.12 13.17L19.12 13.17Q18.68 13.20 18.24 13.20L18.24 13.20L18.24 13.20Q17.63 13.20 17.11 13.08L17.11 13.08L17.11 13.08Q16.59 12.95 16.21 12.68L16.21 12.68L16.21 12.68Q15.83 12.40 15.62 11.96L15.62 11.96L15.62 11.96Q15.41 11.51 15.41 10.88L15.41 10.88L15.41 10.88Q15.41 10.28 15.66 9.84L15.66 9.84L15.66 9.84Q15.90 9.41 16.32 9.14L16.32 9.14L16.32 9.14Q16.74 8.88 17.30 8.75L17.30 8.75L17.30 8.75Q17.86 8.62 18.48 8.62L18.48 8.62L18.48 8.62Q18.68 8.62 18.89 8.64L18.89 8.64L18.89 8.64Q19.10 8.67 19.29 8.70L19.29 8.70L19.29 8.70Q19.47 8.74 19.61 8.76L19.61 8.76L19.61 8.76Q19.75 8.79 19.81 8.81L19.81 8.81L19.81 8.44L19.81 8.44Q19.81 8.12 19.74 7.80L19.74 7.80L19.74 7.80Q19.67 7.49 19.49 7.25L19.49 7.25L19.49 7.25Q19.31 7 18.99 6.85L18.99 6.85L18.99 6.85Q18.68 6.71 18.17 6.71L18.17 6.71L18.17 6.71Q17.53 6.71 17.04 6.80L17.04 6.80L17.04 6.80Q16.56 6.89 16.32 6.99L16.32 6.99L16.17 5.91L16.17 5.91Q16.42 5.80 17.01 5.69L17.01 5.69L17.01 5.69Q17.60 5.59 18.28 5.59ZM23.24 13.05L23.24 5.98L23.24 5.98Q23.69 5.87 24.43 5.74L24.43 5.74L24.43 5.74Q25.17 5.61 26.14 5.61L26.14 5.61L26.14 5.61Q27.01 5.61 27.58 5.86L27.58 5.86L27.58 5.86Q28.15 6.10 28.50 6.54L28.50 6.54L28.50 6.54Q28.84 6.99 28.98 7.60L28.98 7.60L28.98 7.60Q29.12 8.22 29.12 8.96L29.12 8.96L29.12 13.05L27.82 13.05L27.82 9.24L27.82 9.24Q27.82 8.57 27.73 8.09L27.73 8.09L27.73 8.09Q27.64 7.62 27.43 7.32L27.43 7.32L27.43 7.32Q27.22 7.03 26.87 6.89L26.87 6.89L26.87 6.89Q26.52 6.76 26.00 6.76L26.00 6.76L26.00 6.76Q25.79 6.76 25.56 6.78L25.56 6.78L25.56 6.78Q25.34 6.79 25.14 6.81L25.14 6.81L25.14 6.81Q24.93 6.83 24.77 6.86L24.77 6.86L24.77 6.86Q24.61 6.89 24.54 6.90L24.54 6.90L24.54 13.05L23.24 13.05ZM35.98 11.91L35.98 7.31L35.98 7.31Q35.74 7.11 35.29 6.93L35.29 6.93L35.29 6.93Q34.85 6.75 34.31 6.75L34.31 6.75L34.31 6.75Q33.75 6.75 33.35 6.95L33.35 6.95L33.35 6.95Q32.96 7.15 32.70 7.51L32.70 7.51L32.70 7.51Q32.45 7.87 32.34 8.36L32.34 8.36L32.34 8.36Q32.23 8.85 32.23 9.41L32.23 9.41L32.23 9.41Q32.23 10.68 32.86 11.38L32.86 11.38L32.86 11.38Q33.49 12.07 34.54 12.07L34.54 12.07L34.54 12.07Q35.07 12.07 35.43 12.02L35.43 12.02L35.43 12.02Q35.78 11.97 35.98 11.91L35.98 11.91ZM35.98 6.09L35.98 2.41L37.28 2.18L37.28 12.84L37.28 12.84Q36.83 12.96 36.13 13.09L36.13 13.09L36.13 13.09Q35.43 13.22 34.52 13.22L34.52 13.22L34.52 13.22Q33.68 13.22 33.01 12.95L33.01 12.95L33.01 12.95Q32.34 12.68 31.86 12.19L31.86 12.19L31.86 12.19Q31.39 11.70 31.13 11.00L31.13 11.00L31.13 11.00Q30.87 10.29 30.87 9.41L30.87 9.41L30.87 9.41Q30.87 8.57 31.09 7.87L31.09 7.87L31.09 7.87Q31.30 7.17 31.72 6.66L31.72 6.66L31.72 6.66Q32.14 6.16 32.75 5.88L32.75 5.88L32.75 5.88Q33.36 5.60 34.15 5.60L34.15 5.60L34.15 5.60Q34.78 5.60 35.26 5.77L35.26 5.77L35.26 5.77Q35.74 5.94 35.98 6.09L35.98 6.09ZM49.11 13.05L42.84 13.05L42.84 3.35L48.76 3.35L48.76 4.51L44.20 4.51L44.20 7.39L48.26 7.39L48.26 8.53L44.20 8.53L44.20 11.89L49.11 11.89L49.11 13.05ZM53.12 12.10L52.93 13.19L52.93 13.19Q51.73 13.16 51.23 12.67L51.23 12.67L51.23 12.67Q50.72 12.18 50.72 11.14L50.72 11.14L50.72 2.41L52.02 2.18L52.02 10.93L52.02 10.93Q52.02 11.26 52.08 11.47L52.08 11.47L52.08 11.47Q52.14 11.68 52.26 11.80L52.26 11.80L52.26 11.80Q52.39 11.93 52.60 11.99L52.60 11.99L52.60 11.99Q52.81 12.05 53.12 12.10L53.12 12.10ZM55.87 5.77L55.87 13.05L54.57 13.05L54.57 5.77L55.87 5.77ZM55.22 4.45L55.22 4.45L55.22 4.45Q54.87 4.45 54.62 4.22L54.62 4.22L54.62 4.22Q54.38 3.99 54.38 3.60L54.38 3.60L54.38 3.60Q54.38 3.21 54.62 2.97L54.62 2.97L54.62 2.97Q54.87 2.74 55.22 2.74L55.22 2.74L55.22 2.74Q55.57 2.74 55.81 2.97L55.81 2.97L55.81 2.97Q56.06 3.21 56.06 3.60L56.06 3.60L56.06 3.60Q56.06 3.99 55.81 4.22L55.81 4.22L55.81 4.22Q55.57 4.45 55.22 4.45ZM63.90 13.05L62.47 13.05L62.47 13.05Q62.31 12.74 62.09 12.36L62.09 12.36L62.09 12.36Q61.87 11.98 61.60 11.59L61.60 11.59L61.60 11.59Q61.33 11.19 61.05 10.79L61.05 10.79L61.05 10.79Q60.77 10.40 60.51 10.05L60.51 10.05L60.51 10.05Q60.24 10.40 59.96 10.80L59.96 10.80L59.96 10.80Q59.68 11.20 59.42 11.60L59.42 11.60L59.42 11.60Q59.16 12.00 58.94 12.38L58.94 12.38L58.94 12.38Q58.72 12.75 58.56 13.05L58.56 13.05L57.22 13.05L57.22 13.05Q57.71 12.10 58.39 11.11L58.39 11.11L58.39 11.11Q59.07 10.12 59.74 9.23L59.74 9.23L57.33 5.77L58.80 5.77L60.54 8.32L62.29 5.77L63.67 5.77L61.32 9.14L61.32 9.14Q61.99 10.05 62.70 11.07L62.70 11.07L62.70 11.07Q63.41 12.08 63.90 13.05L63.90 13.05ZM66.57 5.77L66.57 13.05L65.27 13.05L65.27 5.77L66.57 5.77ZM65.91 4.45L65.91 4.45L65.91 4.45Q65.56 4.45 65.32 4.22L65.32 4.22L65.32 4.22Q65.07 3.99 65.07 3.60L65.07 3.60L65.07 3.60Q65.07 3.21 65.32 2.97L65.32 2.97L65.32 2.97Q65.56 2.74 65.91 2.74L65.91 2.74L65.91 2.74Q66.26 2.74 66.51 2.97L66.51 2.97L66.51 2.97Q66.75 3.21 66.75 3.60L66.75 3.60L66.75 3.60Q66.75 3.99 66.51 4.22L66.51 4.22L66.51 4.22Q66.26 4.45 65.91 4.45ZM71.50 5.61L71.50 5.61L71.50 5.61Q71.67 5.61 71.88 5.63L71.88 5.63L71.88 5.63Q72.10 5.66 72.31 5.69L72.31 5.69L72.31 5.69Q72.52 5.73 72.70 5.76L72.70 5.76L72.70 5.76Q72.87 5.80 72.95 5.82L72.95 5.82L72.73 6.96L72.73 6.96Q72.58 6.90 72.22 6.83L72.22 6.83L72.22 6.83Q71.86 6.75 71.30 6.75L71.30 6.75L71.30 6.75Q70.94 6.75 70.58 6.83L70.58 6.83L70.58 6.83Q70.22 6.90 70.11 6.93L70.11 6.93L70.11 13.05L68.81 13.05L68.81 6.08L68.81 6.08Q69.27 5.91 69.96 5.76L69.96 5.76L69.96 5.76Q70.64 5.61 71.50 5.61Z"></path></g><!----><g data-v-423bf9ae="" id="2436e61b-9229-46e0-bdea-646b9ca905fe" transform="matrix(1.064748536504198,0,0,1.064748536504198,148.7533080448111,-2.168734682671996)" stroke="none" fill="#CB594D"><path d="M81.664 66.022c3.598-6.222 5.669-13.382 5.669-21.072 0-23.333-18.975-42.292-42.305-42.308L45 2.606l-.028.055c-23.33.015-42.305 19.002-42.305 42.336 0 7.69 2.071 14.802 5.67 21.024L8.292 66h.09C15.717 79 29.379 87.133 45 87.133S74.283 79 81.619 66h.09l-.045.022zM83.333 45a38.094 38.094 0 0 1-4.017 17.055L47.384 6.748C67.414 7.984 83.333 24.664 83.333 45zm-25.93-13H32.598L45 10.519 57.403 32zM58 43.383C56 40.153 54.027 38 50.824 36H58v7.383zM32 54.616C33 57.996 36.21 61 39.621 62H32v-7.384zM34.834 49c0-5.606 4.561-10.167 10.167-10.167S55.168 43.394 55.168 49s-4.561 10.167-10.167 10.167c-5.607 0-10.167-4.561-10.167-10.167zM58 54.617V62h-7.621C53.79 61 56 57.996 58 54.617zM32 43.384V36h7.177C35.974 38 33 40.154 32 43.384zM28 62H15.219L28 40.063V62zm34-21.937L74.781 62H62V40.063zM6.667 45c0-20.336 15.919-37.016 35.949-38.252L10.684 62.056A38.098 38.098 0 0 1 6.667 45zM45 83.133C31.697 83.133 19.96 77 13.083 66h63.834C70.04 77 58.303 83.133 45 83.133z"></path></g><!----></svg>